<?xml version="1.0" encoding="UTF-8"?>
<svg id="Layer_2" data-name="Layer 2" xmlns="http://www.w3.org/2000/svg" xmlns:xlink="http://www.w3.org/1999/xlink" viewBox="0 0 366.95 218.34">
  <defs>
    <style>
      .cls-1 {
        fill: url(#_未命名的渐变_5);
      }

      .cls-1, .cls-2, .cls-3, .cls-4, .cls-5, .cls-6, .cls-7, .cls-8, .cls-9, .cls-10, .cls-11 {
        stroke-width: 0px;
      }

      .cls-2 {
        fill: url(#_未命名的渐变_5-8);
      }

      .cls-3 {
        fill: url(#_未命名的渐变_5-3);
      }

      .cls-4 {
        fill: #e7e000;
      }

      .cls-5 {
        fill: url(#_未命名的渐变_5-7);
      }

      .cls-6 {
        fill: none;
      }

      .cls-7 {
        fill: url(#_未命名的渐变_5-5);
      }

      .cls-8 {
        fill: url(#_未命名的渐变_5-2);
      }

      .cls-9 {
        fill: url(#_未命名的渐变_5-9);
      }

      .cls-12 {
        clip-path: url(#clippath);
      }

      .cls-10 {
        fill: url(#_未命名的渐变_5-6);
      }

      .cls-11 {
        fill: url(#_未命名的渐变_5-4);
      }
    </style>
    <clipPath id="clippath">
      <rect class="cls-6" x="0" y="0" width="366.95" height="218.34" rx="17.59" ry="17.59"/>
    </clipPath>
    <radialGradient id="_未命名的渐变_5" data-name="未命名的渐变 5" cx="6520.24" cy="-5656.29" fx="6520.24" fy="-5656.29" r="221.69" gradientTransform="translate(-4195.44 9701.27) rotate(-15.07) scale(1 1.44)" gradientUnits="userSpaceOnUse">
      <stop offset="0" stop-color="#ffe206"/>
      <stop offset="1" stop-color="#dba600"/>
    </radialGradient>
    <radialGradient id="_未命名的渐变_5-2" data-name="未命名的渐变 5" cx="6667.68" cy="-5671.71" fx="6667.68" fy="-5671.71" r="262.92" gradientTransform="translate(-5509.39 -6613.3) rotate(90)" xlink:href="#_未命名的渐变_5"/>
    <radialGradient id="_未命名的渐变_5-3" data-name="未命名的渐变 5" cx="6756.02" cy="-5673.8" fx="6756.02" fy="-5673.8" r="139.61" gradientTransform="translate(-5509.39 -6613.3) rotate(90)" xlink:href="#_未命名的渐变_5"/>
    <radialGradient id="_未命名的渐变_5-4" data-name="未命名的渐变 5" cx="6503.35" cy="-5370.12" fx="6503.35" fy="-5370.12" r="334.19" gradientTransform="translate(-5509.39 -6613.3) rotate(90)" xlink:href="#_未命名的渐变_5"/>
    <radialGradient id="_未命名的渐变_5-5" data-name="未命名的渐变 5" cx="6717.67" cy="-5735.98" fx="6717.67" fy="-5735.98" r="129.11" gradientTransform="translate(-5509.39 -6613.3) rotate(90)" xlink:href="#_未命名的渐变_5"/>
    <radialGradient id="_未命名的渐变_5-6" data-name="未命名的渐变 5" cx="6934.87" cy="-5830.21" fx="6934.87" fy="-5830.21" r="287.69" gradientTransform="translate(-5509.39 -6613.3) rotate(90)" xlink:href="#_未命名的渐变_5"/>
    <radialGradient id="_未命名的渐变_5-7" data-name="未命名的渐变 5" cx="6671.02" cy="-5769.3" fx="6671.02" fy="-5769.3" r="175.02" gradientTransform="translate(-5509.39 -6613.3) rotate(90)" xlink:href="#_未命名的渐变_5"/>
    <radialGradient id="_未命名的渐变_5-8" data-name="未命名的渐变 5" cx="6595.54" cy="-5891.25" fx="6595.54" fy="-5891.25" r="279.32" gradientTransform="translate(-5509.39 -6613.3) rotate(90)" xlink:href="#_未命名的渐变_5"/>
    <radialGradient id="_未命名的渐变_5-9" data-name="未命名的渐变 5" cx="6878.14" cy="-6042.86" fx="6878.14" fy="-6042.86" r="230.83" gradientTransform="translate(-5509.39 -6613.3) rotate(90)" xlink:href="#_未命名的渐变_5"/>
  </defs>
  <g id="Layer_1-2" data-name="Layer 1">
    <g class="cls-12">
      <g>
        <rect class="cls-1" x="76.35" y="-112.69" width="222.16" height="444.31" transform="translate(296.89 -77.96) rotate(90)"/>
        <path class="cls-8" d="M152.63,46c2.88-8.92,5.34-18.03,7.35-27.31-9.1,1.66-18.06,3.75-26.84,6.25-18,5.12-35.28,11.96-51.65,20.31C38.13,67.38,1.14,100.19-26.03,140.21c-3,4.42-5.88,8.94-8.64,13.53v66.81H-4.74C69.61,187.63,127.39,124.13,152.63,46Z"/>
        <path class="cls-3" d="M185.03,73.33c15.94-8.59,32.77-15.72,50.34-21.21-7.12-13.37-15.27-26.12-24.34-38.13-4.04-5.35-8.27-10.56-12.67-15.61h-34.74c-.97,6.85-2.18,13.62-3.63,20.3-2.01,9.28-4.47,18.39-7.35,27.31C127.39,124.13,69.61,187.63-4.74,220.54h58.66c25.06-63.13,71.84-115.27,131.11-147.21Z"/>
        <path class="cls-11" d="M-26.03,140.21C1.14,100.19,38.13,67.38,81.49,45.25c16.37-8.36,33.65-15.19,51.65-20.31,8.78-2.5,17.74-4.59,26.84-6.25,1.45-6.68,2.66-13.46,3.63-20.3h-50.24s-6.09,0-6.09,0H-34.67v146.05s0,9.3,0,9.3c2.76-4.59,5.64-9.11,8.64-13.53Z"/>
        <path class="cls-4" d="M-1.59-1.61C.6.37,2.75,2.42,4.86,4.53c16.59,16.59,29.61,35.9,38.7,57.41,9.42,22.26,14.19,45.92,14.19,70.3,0,24.38-4.77,48.03-14.19,70.3-2.62,6.19-5.57,12.2-8.83,18.02h1.2c3.17-5.69,6.03-11.56,8.59-17.61,9.47-22.39,14.27-46.18,14.27-70.7,0-24.52-4.8-48.31-14.27-70.7C35.38,39.89,22.28,20.47,5.6,3.79,3.75,1.94,1.87.14-.04-1.61h-1.55Z"/>
        <path class="cls-7" d="M249.69,48.05c1.69-10.42,3.94-20.64,6.72-30.65,1.79-6.43,3.79-12.77,6.01-19.02h-64.06c4.4,5.05,8.62,10.26,12.67,15.61,9.07,12.01,17.22,24.75,24.34,38.13,4.07,7.65,7.81,15.5,11.2,23.54.6-9.33,1.65-18.54,3.13-27.61Z"/>
        <path class="cls-10" d="M268.35,205.91c-5.61-13.33-10.24-27.17-13.81-41.43-4.61-18.45-7.45-37.6-8.3-57.27-.18-4.22-.28-8.46-.28-12.72,0-6.32.21-12.6.61-18.82-3.38-8.04-7.12-15.89-11.2-23.54-17.56,5.49-34.4,12.62-50.34,21.21-59.27,31.94-106.05,84.09-131.11,147.21h158.33s54.78,0,54.78,0c.56-4.84,1-9.72,1.32-14.63Z"/>
        <path class="cls-5" d="M268.96,187.09c0-11.73-.71-23.29-2.07-34.65-1.66-13.8-4.29-27.3-7.83-40.42-3.37-12.47-7.55-24.61-12.49-36.35-.4,6.22-.61,12.5-.61,18.82,0,4.26.1,8.5.28,12.72.86,19.67,3.69,38.82,8.3,57.27,3.57,14.26,8.2,28.11,13.81,41.43.4-6.22.61-12.5.61-18.82Z"/>
        <path class="cls-2" d="M350.82,127.92c8.76-14.09,18.71-27.37,29.71-39.7,3.5-3.92,7.1-7.74,10.8-11.47,5.86-5.89,11.97-11.52,18.32-16.89v-6.94s0-54.56,0-54.56h-147.23c-2.21,6.24-4.22,12.58-6.01,19.02-2.78,10.01-5.03,20.24-6.72,30.65-1.47,9.07-2.52,18.28-3.13,27.61,4.94,11.74,9.13,23.88,12.49,36.35,3.54,13.13,6.17,26.62,7.83,40.42,1.36,11.36,2.07,22.92,2.07,34.65,0,6.32-.21,12.6-.61,18.82-.32,4.91-.76,9.79-1.32,14.63h7.97s38.7,0,38.7,0c6.96-33.36,19.69-64.6,37.12-92.62Z"/>
        <path class="cls-9" d="M409.65,122.49v-29.78s0-11.36,0-11.36v-21.48c-6.35,5.37-12.46,11-18.32,16.89-3.7,3.72-7.31,7.55-10.8,11.47-10.99,12.33-20.94,25.6-29.71,39.7-17.42,28.02-30.16,59.26-37.12,92.62h95.95v-98.06Z"/>
      </g>
    </g>
  </g>
</svg>